<svg xmlns="http://www.w3.org/2000/svg" version="1.0" viewBox="0 0 1480 426">
  <g fill="rgba(218, 145, 0,1)" stroke="rgba(50, 20, 80, 1)" stroke-width="2px">
    <path d="M888 22.3c.3.3 4.6 1.9 9.5 3.7 10.6 3.7 28.9 12.1 36 16.6 2.8 1.7 7.2 4.4 9.9 6 2.6 1.6 5.6 3.3 6.5 3.9C962 59.7 984 77.9 984 80.7c0 1 2.7 1.3 11.3 1.3 6.3 0 15.6.3 20.8.6l9.4.5-5-4.6c-13.4-12.3-57.6-40.2-74.5-47.1-3.6-1.4-8.2-3.5-10.4-4.6-2.1-1.1-3.5-1.5-3.1-.9.8 1.4 1.3 1.4-14-.8-14.1-2.1-31.3-3.7-30.5-2.8zM564.4 42.6c-4.3 3.7-13.7 12.3-20.8 19.3-15.1 14.9-15.1 13.1 0-3.1 8.7-9.2 7.9-8.5-3.7 3.2-12 12.1-30.3 32.2-35.8 39.2-1.2 1.6-1.1 1.8 1.1 1.8 1.9 0 4.2-2 9.3-8.3 8.7-10.4 15.7-17.8 16.3-17.3.9.9-6.4 10.1-13.2 16.8-7.1 6.8-7.1 6.9-4.7 8.1 4.7 2.3 3.3 3.2-4.4 2.9-4.1-.2-7.5-.7-7.5-1 0-.4.7-2.8 1.5-5.4 2.2-7.6 3.6-19.4 2.5-22.3-.8-2.2-1.5-2.5-5.7-2.5-5.3 0-16.2 2.1-23.5 4.6-3.8 1.2-5.3 2.4-6.8 5.2-1.9 3.5-2 3.5-1.5.9.3-2.4.2-2.7-1-1.7-.8.7-1.7 2-2 3.1-.4 1-1.2 1.9-1.9 1.9s-1.8 1.1-2.4 2.4c-.9 1.9-.8 2.5.4 3 .8.3 1.4 1 1.4 1.6 0 .6-.4.8-1 .5-.5-.3-1 .1-1 .9s-.8 1.9-1.7 2.5c-2.4 1.3-.4 5.5 3.6 7.6 3.1 1.6 23.9 5.5 29.2 5.5 1.6 0 2.9.4 2.9 1 0 .5 1.4 1 3.1 1 1.7 0 4.2.9 5.6 2 2.6 2 7.7 2.7 8.7 1.2.4-.8 34.8-2.5 48.6-2.5 2.5 0 11.5-.6 20-1.3 8.5-.7 18.9-1.6 23-2 15.3-1.2 25.5-5.9 41.5-19.3C667.3 73 675 65.8 675 63.5c0-2.4-8-8.4-18.5-13.9-5.4-2.8-8.6-3.5-4.5-1 1.7 1.1 1.9 1.3.5.9-1.1-.4-6.5-2.2-12.1-4-18.4-6.2-27.2-7.4-49.8-6.8-18 .4-19.8.3-18.7-1.1 2.5-3 .4-1.6-7.5 5zm51.2-.2C625 44.3 640 49 640 50c0 .5-.7 1.5-1.5 2.4-.8.8-1.5 1.8-1.5 2.2 0 .4-1.1 2.2-2.5 4-1.4 1.8-2.5 3.5-2.5 3.8 0 .3-.8 1.4-1.7 2.5-1 1-3.1 4-4.6 6.7-6.9 11.9-6.5 11.4-10 11.4-1.8 0-5.7.7-8.7 1.6-3 .8-8.9 2-13 2.5-4.1.6-9.4 1.9-11.8 3-2.4 1.1-6.6 2.4-9.5 3-2.9.6-9.2 1.9-14.2 3-4.9 1-10.1 1.9-11.4 1.9h-2.5l3.1-3.3c2.7-2.8 5.3-6.8 5.3-8 0-.3-1.3-1-2.9-1.7-1.6-.6-4.8-3.4-7.1-6.2l-4.2-4.9 9.3-9.3c10.1-9.9 23.1-21.5 26.4-23.5 2.7-1.6 31.4-.7 41.1 1.3zm38.7 21.2c2.3 1.5 4.5 3.2 4.9 3.7 1.6 2.6-2.2 7.2-12.8 15.2-7.4 5.7-8 6-10.2 4.6-1.1-.6-.6-2.1 1.8-6.7 4.5-8.3 11.2-19.4 11.6-19.4.3 0 2.3 1.2 4.7 2.6zM499.8 81.4c.2 2.7-.4 8.2-1.3 12.1l-1.6 7.2-9.2-1.8c-5.1-1-11.7-1.9-14.8-1.9-3.1 0-5.8-.3-6.1-.6-1.1-1.1 3.7-13.7 5.8-15 3.4-2.3 16.6-5.3 21.9-5.1l5 .2.3 4.9zM611 105.9c-.8.5-5.5 1.1-10.5 1.4l-9 .6 9.5-1.3c5.2-.7 10-1.4 10.5-1.4.6-.1.3.3-.5.7zm-25.5 3.1c-3.3.4-8 .8-10.5.7-4.4 0-4.4 0 1-.7 3-.4 7.8-.7 10.5-.7h5l-6 .7zm-21.9 2.1c-10.1 1.1-43.7 3.1-44.3 2.5-.8-.8 31.7-3.3 43.7-3.3h7.5l-6.9.8z"/>
    <path d="M472 92.4c0 .9.5 1.6 1 1.6.6 0 1-.4 1-.9 0-.6-.4-1.3-1-1.6-.5-.3-1 .1-1 .9zm109.8-54.7c2.9.2 7.4.2 10 0 2.6-.2.2-.3-5.3-.3s-7.6.1-4.7.3zM703 39.8c0 .5.9 1.7 2 2.7 1.1 1 2 1.4 2 1 0-.5.6-.1 1.3.8.6 1 2.1 1.9 3.2 2.1 1.1.2 4.8 1.8 8.2 3.5 3.4 1.7 6.6 3.1 7.2 3.1.5 0 4.4 1.6 8.5 3.5 4.2 1.9 8.2 3.5 8.9 3.5.7 0 3.1.9 5.2 2 2.2 1.1 8.7 3.7 14.5 5.6 5.8 2 11 4 11.7 4.6.7.5 2.1.7 3.3.3 1.1-.3 2-.2 2 .4 0 .5 2.4 1.7 5.3 2.7 2.8.9 6.8 2.5 8.7 3.4 3.7 1.9 9 3.4 9 2.5 0-.2-1.5-.8-3.2-1.3-1.8-.4-3.3-1.3-3.3-1.9 0-.6-.4-1.5-.9-2s-.6-.3-.2.4c.9 1.6 1 1.6-4.7-.5-2.6-1-4.5-2.1-4.2-2.4.3-.2-2.5-1.9-6.2-3.7-5.3-2.7-7.4-3.2-10.5-2.7-2.8.5-3.7.3-3.6-.6.4-1.6-5.1-4.3-12-6.1-2.9-.7-4.9-1.6-4.6-2 .4-.4.2-.7-.4-.7-.5 0-1.9-.3-2.9-.6-1.5-.5-1.6-.4-.3.5 1.2.9.8 1-1.5.5-3.7-.8-4.4-1.4-1.9-1.4 1.8-.1 1.8-.1.1-1.1-.9-.5-2.2-.7-2.8-.3-.6.3-1.4.2-1.8-.3-.7-1-12.6-6.3-14.2-6.3-.6 0-.7.5-.3 1.1.4.7.1 1-.7.7-.8-.3-1.3-1.1-1.1-1.7.1-.6-.6-1.1-1.5-1.1-1 0-3.3-.9-5.2-2.1-2.5-1.5-3.6-1.7-4.1-.8-.6.8-1.3.6-2.6-.9-1-1.2-2.1-1.9-2.5-1.6-.4.2-1-.5-1.4-1.6-.6-2-2.5-2.8-2.5-1.2zM805.5 82c-.8 1.3.5 1.3 2.5 0 1.3-.8 1.3-1-.2-1-.9 0-2 .4-2.3 1zm186.8 27.1c-4 1.2-4.5 3.2-.5 2.2 5.4-1.4 11-.8 14.2 1.5 1.6 1.3 3 1.8 3 1.3 0-1.5-6.6-5.2-10.2-5.6-1.8-.2-4.8 0-6.5.6z"/>
    <path d="M985.8 113.7c-5.8 6.7-4.7 15.2 2.6 18.7 3.7 1.7 9.9 2 13.1.6 1.4-.6.7-.7-2.1-.3-5.5.7-10.7-1.1-13.9-4.8-3.2-3.8-3.2-7.6 0-12.3 2.6-3.9 2.8-4.7.3-1.9z"/>
    <path d="M991.1 114.9c-1.6 1-.6 3.1 1.5 3.1.8 0 1.4-.9 1.4-2 0-2.2-.7-2.5-2.9-1.1zm10.1 1c.6 1 1.8 1.7 2.5 1.4 1.7-.7-.2-3.3-2.3-3.3-1.1 0-1.2.4-.2 1.9zm-543.4 2c-2.5 1.6-5.5 4.3-6.7 5.9-2.5 3.6-5.5 12.8-4.6 14.2 1.3 2 2.4.8 4-4.3 2.5-7.7 6-13.3 10-15.7 1.9-1.2 3.5-2.4 3.5-2.6 0-1-1.9-.2-6.2 2.5zm529.2 6c0 1.9 4.3 6.1 6.2 6.1.5 0 .8-1.7.6-3.8-.3-3.4-.6-3.7-3.5-4-2.7-.3-3.3 0-3.3 1.7zm13.9.8c-.5 1.6-1.2 3.4-1.4 4-.8 2.4 2.6 1.3 5.6-1.6 3.7-3.7 3.7-5.1-.1-5.1-2.4 0-3.3.6-4.1 2.7zm-4.9-.2c0 .8.5 1.5 1 1.5.6 0 1-.7 1-1.5s-.4-1.5-1-1.5c-.5 0-1 .7-1 1.5zm-190.4 5c2.1 6.7 2.2 7.5 1.2 8.1-.6.4-6.3 1-12.7 1.4-13.1.9-15.3 1.3-23.1 4.2-11.5 4.4-21.6 13.7-29.5 27.3-10.3 17.5-22.7 52.5-25.1 70.5-.7 5.6.8 6.9 2.9 2.2.6-1.5 1.4-2.9 1.8-3.2.3-.3 1.1-3 1.8-6 1.8-8.2 4.3-17.4 5.2-18.6.5-.5.6-2 .2-3.2-.3-1.3-.1-2.2.6-2.2 1.6 0 3.3-4.8 3.2-8.8 0-2.2.3-3.1 1.1-2.6.7.4.8.3.4-.4-.9-1.4 3.4-10.2 6.4-13.2 4.6-4.6 38.1-11.3 103-20.6 25-3.6 47.1-6.9 49.1-7.5 6.1-1.6 12.3-4.7 14.9-7.3l2.3-2.6 38.6-.1c21.2-.1 50.1-.5 64.1-.9 18.1-.4 7.1-.6-38.1-.6-50.3.1-63.9-.2-65.1-1.2-.9-.7-5.3-1.7-9.9-2.2-14.4-1.6-59.4-4-75-4-11.2 0-14.9-.3-14.9-1.3 0-.6-.9-3-2-5.2s-1.8-3.1-1.4-2zm62.9 11.5c25.2 1.8 40.3 3.5 39.2 4.6-.2.3-6.9-.2-14.8-1-29.9-3.2-83.6-4.7-94.5-2.7-9.9 1.9-15.8 4.9-26.8 13.8-17.1 13.9-18.9 15.2-22.8 17.3l-3.7 2 1.2-2.3c1.9-3.6 5.4-7.7 6.6-7.7.6 0 1.1-.6 1.1-1.4 0-3.9 10.7-11.8 21.5-16 11.8-4.5 11.3-4.3 7.6-4.4-5.3-.1-4.7-1 1.3-1.7 19.6-2.5 51.7-2.6 84.1-.5zm233.5-6.8c-19.8 1.3-35 4.4-37.8 7.7-1 1.2-4.2 1.7-14 2.2l-12.7.5 12.3.2 12.4.2 3.9 3.4c4.8 4.1 10.7 5.8 29.9 8.6 8 1.2 20.4 3.3 27.5 4.7 7.2 1.4 13.6 2.6 14.4 2.7.8 0 1.8-1.2 2.2-2.9.5-1.7 1.7-4 2.8-5.2 2.4-2.6 5.1-8.8 5.1-11.8 0-1.2-1.2-3.5-2.6-5l-2.6-2.8-15.6.7c-17.1.7-47 3.9-56.9 5.9-5.6 1.2-8 .9-5.4-.7 2.1-1.3 27.3-4.6 44.5-5.7 11.9-.8 17.9-1.6 16-2-5.3-1.3-11.8-1.5-23.4-.7zm-528 17.9c0 .5-.4.8-.9.4-.6-.3-2.9-.2-5.3.2-4.2.7-4.2.7-1.3 1.4 5.7 1.3 8.4 1 9.5-1.1.9-1.6.8-2-.5-2-.8 0-1.5.5-1.5 1.1zm-130.2.6c.7.3 1.6.2 1.9-.1.4-.3-.2-.6-1.3-.5-1.1 0-1.4.3-.6.6z"/>
    <path d="M390.5 153.7c-2.8.7-7.5 5.3-7.5 7.5 0 3.6-3.6 9.5-10.2 16.5-11.5 12.4-18.3 29.7-19.5 49.8-1.8 31.5 11.8 63.2 32.8 76.1 3.2 2 5.9 4.3 5.9 5 0 .7 1.6 1.6 3.8 1.9 2 .4 4.8.8 6.2 1.1 1.4.2 13.8 1.1 27.5 1.9 13.8.8 26.8 1.8 29 2.1 5.7.8 10.6 2.4 10 3.3-1.3 2.2 33.1 13.9 84 28.6 12.7 3.7 28.2 8.2 34.5 10.1 6.3 2 12.2 3.7 13.2 4 .9.3 5.3 4.3 9.9 8.9 6.3 6.5 9.3 8.8 13 10 7.7 2.6 20.4 4.3 40.1 5.4 55.8 3.3 90.3 5.5 106.8 7.1 13.9 1.3 71.8 1.3 95 0 10.2-.5 31.6-1.7 47.5-2.5 48.2-2.6 84-5.4 95-7.5 2.8-.5 9.1-1.4 14-2 31.7-3.7 49.6-6.9 50.3-8.9.2-.6 1.9-1.1 3.8-1.1 4 0 4.4-1.2 1-2.8-2.6-1.2-2.6-4 .1-10 1.7-4 .7-5.7-4-6.8-3-.6-2.9-.7 3.6-3 13.7-4.6 23.5-12.6 31.3-25.7 2.1-3.4 3.9-6.4 4.1-6.7.2-.2 2.7-.3 5.6-.2 6 .3 23.8-2.1 31.7-4.3 3-.8 6.6-1.5 8-1.5 2.8 0 7-2.5 7-4.1 0-.7-1.5-.8-4.1-.4-3.9.7-4 .6-3.7-1.6.2-2 .8-2.4 3.6-2.1 1.7.2 3.2.1 3.2-.2 0-.3-1.4-4.9-3.1-10.1-2.3-7.2-3.2-12.6-3.9-22.3-1.5-21.3-3.1-26.9-8.7-30.7-2.1-1.3-4.9-3.3-6.2-4.2-1.9-1.4-4.9-1.9-13-2.1-23.7-.8-152.6 3.3-217.6 6.8-83.1 4.6-86.3 5-95 11.5-4.1 3.2-14.4 18.2-24.4 35.5-4 6.9-9.1 15.4-11.4 18.8-3.8 6-4.2 6.3-7.1 5.8-1.7-.4-3.2-1.1-3.4-1.6-.2-.6-4.5-1-9.6-1-6.7 0-10.9-.6-15.4-2.1-5.1-1.7-6.5-1.9-7.7-.9-1.3 1-1.5 1-1-.1.5-1.5-6-11-7.3-10.7-.4.1-2-.5-3.7-1.3-4.3-2.2-17.2-5.2-19.1-4.5-1.4.5-1.5 3.3-1.2 25.1l.3 24.6-12.2-.2-12.1-.2-1.6-8.6c-.8-4.7-2.5-14.7-3.6-22.1-10.2-66.7-24.4-109-42.6-127.7-10.1-10.3-19.8-11.9-30.1-5.1-3.7 2.4-11.5 13.5-13.9 19.6-.8 2-1.9 4.5-2.4 5.4-.6 1.1-.5 1.8.3 2.1.9.4.9.6 0 .6-4 .3-11.8 47.6-9.2 56.1.4 1.4 1 7.2 1.3 13 .3 5.8 1 11.9 1.5 13.7.5 1.7.6 3.4.3 3.8-.4.4-.7 1.8-.7 3.2 0 2.3-.7 2.8-7.9 5l-7.8 2.5.7 6.2c1.2 11.4 4.2 16.5 9.7 16.6 2.2 0 9.8 3.2 9.8 4.1 0 .9-9.8-1.3-40.5-8.9-13.2-3.3-31-7.6-39.5-9.7-18.1-4.3-44.7-11.5-57.5-15.5-4.9-1.5-10.7-3.1-12.7-3.4-2.1-.4-3.8-1.2-3.8-1.9 0-2.4-3-28.4-4-34.2-.6-3.3-2.1-13.2-3.5-22-1.6-10-3.3-17-4.5-19-2.8-4.5-4.5-12.2-3.1-13.9 1.4-1.6-2.3-15.1-7.5-27.1-1.9-4.5-3.4-8.6-3.4-9.3 0-.6 1.5-1.6 3.3-2.1 1.7-.5 2.4-1 1.4-1-1-.1-2.8.4-3.9 1-1.7.9-2.5.6-5.2-1.9-3.4-3.2-6-4.2-9.1-3.5zM611 206.4c0 .2-.7.7-1.6 1-.8.3-1.2.2-.9-.4.6-1 2.5-1.4 2.5-.6zm16.1 3.2c.9 1.1.2.9-1.8-.6-1.8-1.3-3.3-2.5-3.3-2.7 0-.8 3.8 1.7 5.1 3.3zm18.7 17.4c.3.7 0 1-.7.6-1.5-1-1.3 1.4.4 4.4.8 1.4 1.4 3.2 1.4 4 0 1.4-5.8-8.6-5.9-10.2 0-1.3 4.4-.2 4.8 1.2zm-232.2 4.6c-.3.7-.1 1.6.4 1.9.6.4 1 1.6.9 2.8 0 1.2-.3 1.7-.5 1-.3-.7-1.2-.9-2-.6-1.1.4-1.2.9-.3 1.9.9 1.1.7 1.4-1 1.4-1.2 0-1.9.4-1.6 1 .3.5.4 1 0 1-.3 0-1-1.1-1.5-2.5-1.2-3.2.3-7.5 2.7-7.6 1.1 0 1.3-.3.5-.6-.6-.2-1-.9-.7-1.3.9-1.4 3.7.1 3.1 1.6zm165.1 12.1c-.3 1-.5.2-.5-1.7s.2-2.7.5-1.8c.2 1 .2 2.6 0 3.5zM607 254c.3.1-.5.5-1.8 1.1-1.7.6-2.7.5-3.8-.6-1.4-1.3-1.2-1.5 1.8-1.1 1.8.3 3.5.5 3.8.6zm475.7 13.2c-.3.8-.6.5-.6-.6-.1-1.1.2-1.7.5-1.3.3.3.4 1.2.1 1.9zM636.5 274c.3.5-.3 1-1.4 1-1.2 0-2.1-.5-2.1-1 0-.6.6-1 1.4-1 .8 0 1.8.4 2.1 1zm-257 11.1c12.6 12.9 27.1 15.8 39.8 7.9 2.6-1.6 4.5-2.5 4.2-2-1.3 2.2-8.2 5.7-13.3 7-6.6 1.5-12.9.8-19.7-2.5-5.8-2.7-15-11.3-17.8-16.6-1.4-2.5-1.4-2.9-.2-1.4.8 1.1 4 4.5 7 7.6zm257.6-6.5c1.1 1.3 1 1.7-.4 2.5-.9.6-1.7 1.8-1.7 2.9 0 1-.6 2-1.2 2.3-1 .3-1 .7.1 2 .8 1.1.9 1.7.3 1.7-.6 0-1.7-1.8-2.3-4-2-6.6 1.6-11.7 5.2-7.4zm385.5-.5c.8 1.4-1.1 3.3-2.5 2.5-1.1-.7-.4-3.6.9-3.6.5 0 1.2.5 1.6 1.1zM1002 280c0 1.1-.7 2-1.5 2-1.7 0-1.8-.2-.9-2.4.9-2.3 2.4-2 2.4.4zm7-.6c0 .8-.4 1.7-.9 2.1-1.2.7-2.4-1.2-1.6-2.5.9-1.5 2.5-1.2 2.5.4zm7 .1c0 .8-.7 1.5-1.5 1.5s-1.5-.7-1.5-1.5.7-1.5 1.5-1.5 1.5.7 1.5 1.5zm-20 .4c0 .5-.6 1.4-1.4 2-1.6 1.3-3.2-.2-2.1-1.9.8-1.2 3.5-1.3 3.5-.1zm136.1 4.1 2.4 2-3.3-1.6c-2.9-1.4-3.8-1.4-7-.2-2.1.8-5 3.2-6.9 5.7-3.7 4.8-4.3 4.5-1.2-.6 4.2-6.8 11.5-9.2 16-5.3zm-111.1 1.5c0 .8-.4 1.5-1 1.5-.5 0-1-.7-1-1.5s.5-1.5 1-1.5c.6 0 1 .7 1 1.5zm-617 .4c0 .6-.4 1.3-1 1.6-.5.3-1-.1-1-.9 0-.9.5-1.6 1-1.6.6 0 1 .4 1 .9zm590.7 2.8c-.3.3-1.1.2-1.7-.2-.8-.5-.7-1.1.2-2.2 1.2-1.5 1.3-1.4 1.6.1.2 1 .1 2-.1 2.3zm6.8-.7c-.5.8-1.1.8-1.7.2-.6-.6-.7-1.6-.3-2.2.5-.8 1.1-.8 1.7-.2.6.6.7 1.6.3 2.2zm6.5-1.5c0 .8-.4 1.5-1 1.5-.5 0-1-.7-1-1.5s.5-1.5 1-1.5c.6 0 1 .7 1 1.5zm7-.6c0 1.2-2 2.5-2.7 1.8-.7-.7.6-2.7 1.8-2.7.5 0 .9.4.9.9zm117.3 5.6c-.5 4.3-.5 4.5 2 4.5 2.4 0 2.4.2 1.7 3.7-2.2 9.5-12.6 16.1-18 11.3-2.2-1.9-2.3-2-.3-1.1 3.2 1.6 6.3 1.4 6.3-.5 0-.9 1.1-2.9 2.5-4.6 3.2-3.8 4.7-9.5 3.6-13.5-1-3.3-.6-4.3 1.5-4.3 1 0 1.2 1.1.7 4.5zm-113.3 1c0 .8-.4 1.5-1 1.5-.5 0-1-.7-1-1.5s.5-1.5 1-1.5c.6 0 1 .7 1 1.5zm-24 1c0 .8-.4 1.5-1 1.5-.5 0-1-.7-1-1.5s.5-1.5 1-1.5c.6 0 1 .7 1 1.5zm5.6 1.2c-1 1-1.9-.5-1-1.8.6-1.1.8-1.1 1.2 0 .2.7.1 1.5-.2 1.8zm6.4-1.1c0 .8-.5 1.2-1 .9-.6-.4-.8-1.1-.5-1.6.9-1.4 1.5-1.1 1.5.7zm6-.6c0 .5-.4 1-1 1-.5 0-1-.5-1-1 0-.6.5-1 1-1 .6 0 1 .4 1 1zm-154.2 6c1.7 1.1 3.2 2.3 3.3 2.7 0 .5.3 1.7.6 2.8.3 1.1.7 4.2 1 7 .8 9.1-6.9 17.5-16.2 17.5-4.2 0-9-2.2-9.9-4.6-.4-1 .4-.7 2.5 1 2 1.7 4.2 2.6 6.5 2.6 3 0 3.7-.4 4.5-3 .6-1.7 1.4-3 1.9-3 .4 0 1.6-1.2 2.6-2.8 1.4-2.1 1.8-4.7 1.9-11.5 0-8.4-.1-8.8-2.3-9.4-5.9-1.4-13.9 2.4-16.9 8-.8 1.6-1.7 2.6-2 2.3-.3-.3.5-2.1 1.8-4 4.9-7.1 14.1-9.6 20.7-5.6zm142.2 1c0 .5-.4 1-1 1-.5 0-1-.5-1-1 0-.6.5-1 1-1 .6 0 1 .4 1 1zm5 0c0 .5-.5 1-1.1 1-.5 0-.7-.5-.4-1 .3-.6.8-1 1.1-1 .2 0 .4.4.4 1zm6-.6c0 .3-.4.8-1 1.1-.5.3-1 .1-1-.4 0-.6.5-1.1 1-1.1.6 0 1 .2 1 .4zm-416.9 16.5c1 5.2 1.7 9.6 1.5 9.8-.9 1-4.7-17.4-4.5-21.7l.2-2.5.4 2.5c.2 1.4 1.3 6.7 2.4 11.9zm367.2 4.6c4.3 1.4 8.2 2.3 8.8 2 .5-.4 2.7-.4 4.8 0 3.3.5 4.5 1.5 7.6 6.2 2 3 5.6 7.6 7.8 10.1l4.2 4.5-3-.6c-1.6-.4-10.6-2.2-20-4.1-16.9-3.5-40.8-8-58-11.1-13.5-2.3-14.5-2.6-14.5-3.5 0-2 7.3-3.3 24.7-4.5 27.6-1.8 28.9-1.8 37.6 1zm-322.6 7.7c-.3.7-.5.2-.5-1.2s.2-1.9.5-1.3c.2.7.2 1.9 0 2.5zm1.7 5.3c.5 2.2.4 2.6-.4 1.5-.5-.8-1-2.4-1-3.4 0-2.6.6-1.8 1.4 1.9zm-33.8 19.8c10.3 13.2 20.4 12.4 30.7-2.3l1.8-2.5-1.2 2.5c-2.4 5-7.4 10.3-11.6 12.2-3.7 1.6-4.8 1.7-8.2.7-7-2.1-14.9-10.5-20.4-21.8-2.9-5.8-1.8-5.9 1.4-.1 1.6 3.1 5 8.2 7.5 11.3zm13.4-6.4c0 .6-.4 1.3-1 1.6-.5.3-1-.1-1-.9 0-.9.5-1.6 1-1.6.6 0 1 .4 1 .9zm4 8.1c5.5-.3 5.7 0 2 2-4.5 2.5-8.7 2.5-12.7 0-4.1-2.4-4.1-3-.3-2.5l3 .4-2.7-2.5-2.8-2.4 5 2.5c2.9 1.6 6.4 2.5 8.5 2.5zM437.8 153.7c.6.2 1.8.2 2.5 0 .6-.3.1-.5-1.3-.5-1.4 0-1.9.2-1.2.5zm114.2.5c0 .4.9.8 2 .8s2-.4 2-.9c0-.6-.9-.9-2-.8-1.1.1-2 .5-2 .9zm-119.2.5c.7.3 1.6.2 1.9-.1.4-.3-.2-.6-1.3-.5-1.1 0-1.4.3-.6.6z"/>
    <path d="M427.8 155.7c.7.3 1.6.2 1.9-.1.4-.3-.2-.6-1.3-.5-1.1 0-1.4.3-.6.6zm548.9 0c-.4.4.7 1.3 2.4 2 4.1 1.7 2.8 3.3-2.9 3.4-4.1 0-4.4.2-2.2 1 1.4.6 6.2.7 11.6.3 7.5-.5 9.1-.9 8.7-2.1-.3-.8-.9-1-1.2-.5-.7 1.1-7.1 1.2-7.1.1 0-.4-1.6-1.3-3.5-2s-3.5-1.7-3.5-2.1c0-1-1.4-1-2.3-.1zm-561.9 2c.7.3 1.6.2 1.9-.1.4-.3-.2-.6-1.3-.5-1.1 0-1.4.3-.6.6zm598.2.2c-.8.6-1.8.7-2.2.5-.4-.3-.8.3-.8 1.4 0 1.6.8 1.8 6.5 1.9 6 0 6.4-.1 4-1.3-1.3-.7-3.6-1.1-5-.8-3.1.5-3.3-.4-.2-1.6 1.2-.5 1.5-.9.7-.9s-2.2.3-3 .8zm-12.8.8c-3.3.6-5.5 6.6-2.9 7.6 1 .4 1.3-.2.9-1.9-.4-2.1-.1-2.4 2.7-2.4 2.4 0 3.1-.4 3.1-2 0-1.1-.3-1.9-.7-1.9-.5.1-1.8.4-3.1.6zm2.8 1.3c0 .5-.8 1-1.7 1-1.5 0-1.6-.2-.3-1 1.9-1.2 2-1.2 2 0zm2.5-.1c-1 1.7 1.2 2.1 2.5.6 1-1.2 1-1.5-.3-1.5-.9 0-1.8.4-2.2.9zM1016 181c-46.1.9-100.4 3-103.9 4-2.5.8-2.5.8.6.9 3 .1 3.3.4 3.9 4.2.5 2.8 1 3.7 1.7 3 .7-.7 6-1.1 13.3-1.1 8.9 0 12.3-.3 12.6-1.2 1.1-3.1 2.9 4 5 18.8 1.2 8.7 2.4 15.2 2.6 14.6.2-.6-.6-7.8-1.7-15.9-1.1-8.1-1.8-16-1.5-17.5.6-2.5 1-2.7 7.8-3.3 3.9-.4 26.2-.7 49.6-.8 35.9 0 43.1.2 46.5 1.5 2.2.8 4.5 1.3 5.1 1.1 1.4-.5 3 3.3 5.4 12.4l1.8 6.8.1-6c.3-13.8 2.4-17.7 11-19.8l5.4-1.4-7.8-.6c-4.3-.4-10.5-.6-13.9-.5-3.4.1-23 .5-43.6.8zm-363.4 10.8c-.3.6.3 2.5 1.3 4.4 2.3 3.8 12 32.8 14.6 43.5 1.6 7 1.8 7.3 4.6 7.3 1.6 0 2.9-.1 2.9-.3 0-1.5-6.7-23.4-9.8-32.2-5.9-16.5-8.6-22.6-9.8-22.1-.6.3-1.6 0-2.2-.6-.6-.6-1.2-.6-1.6 0zm432.4 20.8c-1.6 4.1-1.2 6.3.6 3.1 1.3-2.4 2-2.7 6.9-2.7 4.2 0 5.5-.3 5.5-1.5s-1.3-1.5-6-1.5c-5.6 0-6.1.2-7 2.6zm-133 16.9c0 1.4.4 2.5.9 2.5.4 0 .6-1.1.3-2.5-.2-1.4-.6-2.5-.8-2.5-.2 0-.4 1.1-.4 2.5zm-409.3 39.1c-.3.4-2.1 1-3.9 1.5-3.2.9-3.2.9.6.4 3.9-.4 5.3-1.1 4.4-2-.2-.3-.7-.2-1.1.1zm-15.9 3.1c1.8.2 4.5.2 6 0s0-.4-3.3-.4-4.5.2-2.7.4zm-14 1c1.7.2 4.7.2 6.5 0 1.7-.2.3-.4-3.3-.4-3.6 0-5 .2-3.2.4zm-16.5 1c2 .2 5.4.2 7.5 0 2-.2.3-.4-3.8-.4s-5.8.2-3.7.4zm-24.5 1c2.9.2 7.4.2 10 0 2.6-.2.2-.3-5.3-.3s-7.6.1-4.7.3zm-17.3 5.7c1.9 2.9 1.6 3.2-5.7 4-5.5.7-9.1 2.6-5 2.6 1.1 0 9.5 2.3 18.8 5 25.7 7.7 80.6 21 86.6 21 1.8 0 3.8-.9 5.2-2.5 3.7-4 3.8-6 .2-7.8-4.7-2.3-17.9-6.2-29.6-8.7-5.8-1.2-13.5-3.1-17.2-4.1-3.6-1.1-7.6-1.9-8.7-1.9-1.2 0-2.1-.4-2.1-.9s-2.6-1.2-5.7-1.5c-11.1-1.3-23.8-3.8-29.1-5.7-2.9-1-6.2-1.9-7.3-1.9-1.8 0-1.9.1-.4 2.4zm90.2 21.2c-.3.3-1.2.4-1.9.1-.8-.3-.5-.6.6-.6 1.1-.1 1.7.2 1.3.5zm-25.9 8.1c.7.3 1.6.2 1.9-.1.4-.3-.2-.6-1.3-.5-1.1 0-1.4.3-.6.6zm3.2.2c0 .5 1.2 1.1 2.8 1.4 2.7.5 21.9 5.3 25.6 6.4 1.2.3 1.6.1 1.2-.6-.4-.6-.2-1.1.4-1.1.6 0 .8-.5.5-1-.3-.6-2.4-1-4.5-1s-8.5-1.1-14.2-2.5c-11.6-2.8-11.8-2.8-11.8-1.6z"/>
  </g>
</svg>
