<?xml version="1.0" standalone="no"?>
<!DOCTYPE svg PUBLIC "-//W3C//DTD SVG 20010904//EN"
 "http://www.w3.org/TR/2001/REC-SVG-20010904/DTD/svg10.dtd">
<svg version="1.0"
	xmlns="http://www.w3.org/2000/svg" width="1480.000000pt" height="426.000000pt" viewBox="0 0 1480.000000 426.000000" preserveAspectRatio="xMidYMid meet">

	<g transform="translate(0.000000,426.000000) scale(0.100000,-0.100000)" fill="#000000" stroke="none">
		<path d="M7450 3749 c-138 -21 -176 -33 -229 -71 -13 -10 -31 -18 -41 -18 -9
0 -45 -18 -79 -40 -34 -22 -70 -40 -79 -40 -10 0 -48 -20 -85 -45 -37 -25 -67
-42 -67 -38 0 3 -11 -6 -25 -21 -13 -14 -29 -26 -35 -26 -6 0 -16 -4 -23 -10
-72 -59 -115 -91 -147 -106 -21 -10 -36 -22 -34 -26 3 -5 2 -8 -3 -8 -7 0
-125 -85 -188 -135 -11 -9 -33 -25 -50 -35 l-30 -20 191 0 c158 0 194 3 204
15 11 13 4 15 -51 15 l-64 0 30 20 c56 39 250 157 375 230 69 40 157 96 195
125 135 99 235 166 307 205 l73 40 -45 -1 c-25 -1 -70 -5 -100 -10z"/>
		<path d="M9125 3664 c-16 -15 -60 -53 -97 -86 -37 -33 -79 -68 -95 -78 -15 -9
-54 -43 -86 -74 -33 -31 -62 -56 -66 -56 -4 0 -26 -22 -49 -49 -29 -34 -56
-54 -87 -65 l-45 -15 11 22 c6 12 -55 -45 -135 -127 -80 -82 -146 -152 -146
-156 0 -13 215 -59 380 -81 92 -12 735 20 1140 56 456 42 509 51 562 100 34
32 61 82 49 90 -6 3 -17 -10 -26 -29 -24 -51 -83 -72 -252 -90 -78 -9 -159
-15 -180 -15 -21 1 3 6 52 11 104 10 119 14 109 29 -4 6 -20 9 -38 6 -28 -4
-31 -2 -32 22 -2 80 -11 106 -35 109 -67 9 -99 24 -114 52 -13 24 -22 30 -50
30 -51 0 -145 39 -173 71 -13 16 -32 29 -43 29 -10 0 -33 13 -51 29 -28 24
-45 30 -103 35 -107 8 -108 8 -117 -6 -26 -43 -21 -43 -140 -1 -111 40 -241
62 -254 42 -3 -5 -15 -9 -26 -9 -12 0 -30 -7 -40 -17 -10 -9 -18 -12 -18 -7 0
6 41 52 92 103 l92 94 186 -6 c208 -7 391 -27 590 -63 150 -27 280 -62 280
-75 0 -5 8 -9 18 -9 37 0 234 -89 281 -127 l24 -20 -19 -49 c-10 -26 -47 -86
-81 -131 -35 -45 -63 -85 -63 -88 0 -15 23 -1 63 38 33 31 54 66 81 132 20 50
42 99 48 109 14 25 -9 44 -117 99 -251 126 -636 204 -1102 224 -78 3 -140 10
-137 15 10 16 -12 7 -41 -18z m83 -329 c156 -24 220 -44 247 -77 26 -31 50
-102 41 -124 -3 -8 1 -14 10 -14 9 0 14 -6 12 -12 -5 -15 -38 -20 -388 -52
-197 -18 -268 -21 -278 -13 -21 17 10 25 90 26 78 1 167 18 188 36 9 8 78 17
184 24 94 6 172 14 174 16 3 3 -6 9 -19 14 -13 5 -19 10 -12 10 7 1 10 8 7 16
-13 32 -94 6 -94 -31 0 -8 -38 -14 -137 -19 -76 -4 -187 -10 -248 -15 -60 -4
-114 -4 -118 0 -11 10 53 136 87 173 32 34 80 56 124 57 18 0 76 -7 130 -15z
m-368 -111 l0 -107 -60 7 c-59 7 -62 6 -90 -25 -17 -17 -30 -36 -30 -41 0 -6
29 -8 69 -6 38 2 67 0 64 -4 -2 -5 -23 -8 -46 -9 -23 -1 -53 -5 -67 -9 -22 -7
-21 -8 15 -11 40 -2 40 -2 -10 -8 -40 -5 -49 -9 -47 -23 2 -12 -4 -18 -18 -18
-11 0 -33 -8 -48 -17 -26 -17 -27 -17 -11 2 8 11 42 56 74 100 32 44 89 119
127 166 37 48 68 92 68 98 0 6 2 11 5 11 3 0 5 -48 5 -106z m-22 -201 c-16 -2
-40 -2 -55 0 -16 2 -3 4 27 4 30 0 43 -2 28 -4z m1125 -20 c-13 -2 -33 -2 -45
0 -13 2 -3 4 22 4 25 0 35 -2 23 -4z m-115 -10 c-10 -2 -28 -2 -40 0 -13 2 -5
4 17 4 22 1 32 -1 23 -4z m-125 -10 c-13 -2 -33 -2 -45 0 -13 2 -3 4 22 4 25
0 35 -2 23 -4z"/>
		<path d="M9428 3223 c7 -3 16 -2 19 1 4 3 -2 6 -13 5 -11 0 -14 -3 -6 -6z"/>
		<path d="M7095 3670 c-3 -6 1 -7 9 -4 18 7 21 14 7 14 -6 0 -13 -4 -16 -10z"/>
		<path d="M6953 3624 c-156 -83 -343 -198 -613 -381 -98 -66 -162 -106 -124
-76 16 12 57 83 51 89 -5 5 -61 -85 -62 -98 0 -4 -15 -18 -33 -31 l-33 -25 68
3 c83 3 75 1 99 23 39 35 392 293 494 362 71 47 189 118 232 139 15 8 25 18
22 22 -3 5 2 6 10 3 9 -3 16 -1 16 5 0 21 -39 10 -127 -35z"/>
		<path d="M10186 3400 c3 -41 9 -137 13 -213 7 -121 13 -160 24 -146 5 6 -21
300 -33 374 -9 60 -9 60 -4 -15z"/>
		<path d="M10476 3186 c-13 -20 -13 -24 -2 -20 8 3 17 13 20 21 10 26 0 25 -18
-1z"/>
		<path d="M7460 2875 c147 -40 287 -104 395 -179 63 -44 132 -86 142 -86 3 0
-10 14 -28 30 -57 50 -198 141 -275 176 -81 38 -243 84 -289 83 -19 0 1 -9 55
-24z"/>
		<path d="M11820 2751 c0 -5 -9 -12 -19 -16 -11 -3 -18 -13 -16 -23 14 -70 17
-76 25 -62 11 20 24 110 16 110 -3 0 -6 -4 -6 -9z"/>
		<path d="M10506 2563 c-79 -160 -193 -341 -321 -510 -87 -114 -89 -119 -41
-73 119 112 261 315 350 500 59 123 72 160 59 160 -5 0 -26 -35 -47 -77z"/>
		<path d="M11214 2561 c-103 -26 -244 -153 -321 -288 -37 -64 -95 -227 -117
-325 -14 -62 -30 -171 -36 -243 -17 -194 -12 -184 -105 -215 -44 -15 -116 -49
-160 -75 -160 -95 -124 -85 -480 -126 -99 -11 -232 -27 -295 -34 -63 -8 -175
-21 -248 -30 -73 -8 -185 -22 -250 -30 -65 -9 -132 -16 -148 -16 -16 0 -45 0
-64 0 -19 0 -42 -3 -50 -6 -8 -3 -46 -7 -83 -9 -37 -2 -94 -8 -125 -14 -61
-12 -238 -36 -362 -50 -41 -4 -109 -17 -150 -29 -41 -11 -83 -21 -93 -21 -38
0 -183 -64 -212 -94 -24 -23 -45 -32 -100 -42 -38 -7 -72 -10 -75 -8 -2 3 4
26 14 52 60 154 106 388 106 535 0 111 -23 269 -51 356 -59 183 -198 372 -333
452 -41 24 -42 27 -18 46 15 12 14 12 -10 2 -23 -10 -40 -8 -110 15 -161 54
-317 42 -478 -34 -48 -24 -93 -39 -99 -36 -6 4 -11 0 -11 -9 0 -10 -12 -27
-27 -38 -218 -169 -389 -479 -449 -812 -20 -115 -29 -428 -15 -554 6 -57 10
-105 8 -107 -2 -2 -70 -8 -153 -14 -82 -6 -162 -13 -179 -15 -16 -2 -132 -7
-257 -11 l-227 -7 6 21 c5 21 11 22 105 22 131 0 424 19 513 34 l70 11 3 208
2 209 -42 -7 c-74 -11 -157 -34 -192 -52 -19 -10 -91 -72 -161 -138 -70 -66
-134 -123 -143 -127 -10 -4 -62 -7 -117 -7 l-100 -1 -38 78 c-39 82 -132 226
-225 350 -76 101 -248 280 -291 302 -34 17 -63 18 -416 14 -398 -5 -509 -10
-500 -24 3 -5 23 -11 45 -14 22 -3 58 -9 80 -12 25 -4 40 -11 40 -20 0 -8 5
-14 11 -14 5 0 8 -4 5 -9 -4 -5 7 -15 24 -23 17 -7 28 -18 26 -25 -3 -7 -1
-15 4 -18 6 -4 10 1 10 9 0 9 4 16 9 16 5 0 7 -9 4 -20 -4 -13 0 -20 9 -20 15
0 41 -52 84 -164 11 -27 40 -72 65 -100 85 -93 202 -118 659 -141 227 -12 292
-17 283 -26 -4 -4 -73 -24 -153 -44 -127 -32 -165 -37 -305 -41 -163 -5 -932
27 -953 40 -7 4 -3 18 13 43 29 42 31 68 10 143 -9 30 -40 152 -70 270 -30
118 -58 217 -63 221 -6 6 -162 20 -401 36 l-84 6 5 -59 c5 -51 1 -67 -24 -118
-26 -52 -30 -68 -26 -127 3 -53 8 -73 24 -88 11 -10 34 -39 50 -65 16 -25 34
-46 40 -46 7 0 14 -6 17 -13 3 -8 -32 -27 -106 -56 -154 -60 -156 -64 -44 -90
51 -11 111 -24 135 -27 32 -5 42 -11 42 -25 0 -12 9 -21 25 -24 14 -3 35 -7
48 -10 13 -2 34 3 46 11 21 15 42 14 269 -11 171 -19 262 -34 295 -48 52 -22
61 -37 20 -37 -15 0 -45 -9 -67 -19 -23 -11 -75 -27 -116 -35 -41 -9 -86 -21
-100 -25 -14 -5 -77 -17 -140 -26 -63 -10 -121 -22 -129 -29 -7 -6 -19 -11
-25 -11 -22 0 -59 -34 -53 -49 11 -28 131 -96 212 -120 120 -36 256 -66 342
-76 683 -83 1311 -115 1628 -83 256 25 437 33 910 38 552 7 765 19 765 46 0 5
11 9 25 9 15 0 36 11 49 25 13 14 29 25 36 25 7 0 36 6 64 14 28 8 80 20 116
26 89 15 504 69 685 90 44 5 177 20 295 34 118 14 235 27 260 30 25 3 95 12
155 20 61 9 205 27 320 41 116 14 273 34 350 45 77 11 237 31 355 45 118 14
262 31 320 39 186 26 270 32 575 41 205 7 326 19 381 39 22 8 32 15 24 15 -8
1 5 14 30 30 66 42 110 89 158 168 81 134 150 315 183 482 28 140 23 355 -11
471 -12 41 -24 88 -26 105 -10 73 -131 210 -223 253 -59 27 -168 38 -227 23z
m-24 -276 c0 -2 -10 -9 -22 -15 -22 -11 -22 -10 -4 4 21 17 26 19 26 11z
m-3800 -119 c81 -47 186 -137 221 -189 14 -20 -5 -6 -47 34 -71 68 -156 130
-231 168 -24 12 -43 24 -43 26 0 14 33 1 100 -39z m-480 -328 c0 -24 -3 -73
-7 -110 -5 -56 -9 -68 -23 -68 -20 0 -25 21 -36 143 l-6 77 36 0 c36 0 36 0
36 -42z m-123 -10 c-3 -7 -5 -2 -5 12 0 14 2 19 5 13 2 -7 2 -19 0 -25z m-52
-105 l7 -93 -71 0 c-84 0 -161 18 -161 38 0 8 26 40 58 71 66 65 142 108 153
88 4 -6 10 -54 14 -104z m393 91 c33 -21 27 -62 -15 -114 -2 -2 -8 2 -13 10
-8 12 -10 11 -10 -4 0 -15 -3 -17 -11 -9 -6 6 -14 41 -17 78 -5 67 -5 67 19
60 13 -4 34 -13 47 -21z m3852 -19 c0 -16 -6 -25 -15 -25 -15 0 -21 31 -8 43
13 14 23 6 23 -18z m197 -10 c-4 -8 -2 -17 3 -20 26 -16 2 -95 -28 -95 -15 1
-15 2 2 11 17 11 17 12 -5 23 -43 21 -38 96 7 96 19 0 25 -4 21 -15z m-3957
-126 c0 -21 -4 -39 -10 -39 -5 0 -10 21 -10 46 0 27 4 43 10 39 6 -3 10 -24
10 -46z m3852 -69 c-3 -32 0 -45 17 -59 l21 -19 -20 -48 c-29 -66 -40 -45 -40
74 0 68 3 92 13 92 9 0 11 -12 9 -40z m487 -33 c-12 -43 -22 -50 -13 -9 9 42
14 55 19 50 2 -2 0 -21 -6 -41z m-4966 -37 c32 -14 47 -27 47 -40 0 -17 -2
-17 -52 3 -54 22 -70 35 -62 48 2 4 -4 10 -13 12 -10 2 -7 3 7 1 14 -1 46 -12
73 -24z m4574 8 c-3 -8 -6 -5 -6 6 -1 11 2 17 5 13 3 -3 4 -12 1 -19z m-4190
-90 c22 -21 34 -86 14 -73 -5 3 -13 0 -16 -5 -14 -23 -56 -31 -86 -16 -26 13
-29 13 -29 -2 0 -15 -2 -15 -10 -2 -17 26 -11 73 12 97 28 30 83 31 115 1z
m4525 -20 c-7 -7 -12 -8 -12 -2 0 14 12 26 19 19 2 -3 -1 -11 -7 -17z m-57
-102 c-27 -35 -43 -49 -29 -23 20 35 47 68 51 63 3 -2 -7 -21 -22 -40z m-4461
19 c-13 -32 -73 -46 -104 -24 -11 7 -5 8 20 4 28 -5 42 -2 60 14 30 25 31 25
24 6z m4500 -57 c-56 -68 -94 -102 -138 -125 -108 -55 -232 -19 -308 90 -17
25 -9 20 36 -21 41 -37 64 -51 75 -46 9 4 43 10 76 14 33 4 74 14 92 23 37 20
47 21 38 7 -13 -20 -79 -40 -134 -40 -42 0 -52 -3 -41 -11 12 -8 9 -9 -10 -5
-21 5 -21 4 5 -9 79 -38 194 1 273 92 44 51 75 77 36 31z m-781 -15 c-7 -2
-19 -2 -25 0 -7 3 -2 5 12 5 14 0 19 -2 13 -5z m-56 -9 c-3 -3 -12 -4 -19 -1
-8 3 -5 6 6 6 11 1 17 -2 13 -5z m613 -14 c0 -5 -2 -10 -4 -10 -3 0 -8 5 -11
10 -3 6 -1 10 4 10 6 0 11 -4 11 -10z m-4340 -7 c-1 -5 -7 -19 -15 -33 -14
-25 -14 -25 -15 -2 0 12 5 22 11 22 5 0 7 5 4 10 -3 6 -1 10 4 10 6 0 11 -3
11 -7z m4435 -38 c-22 -14 -44 -25 -50 -25 -12 0 66 48 80 49 6 0 -8 -11 -30
-24z m-3915 -191 c0 -14 -3 -14 -15 -4 -8 7 -15 14 -15 16 0 2 7 4 15 4 8 0
15 -7 15 -16z m44 -48 c-3 -8 -13 -17 -22 -21 -13 -5 -13 -2 3 15 21 24 26 25
19 6z m-3099 -6 c110 -5 290 -11 400 -12 221 -2 224 -13 8 -24 -73 -4 -133
-11 -133 -16 0 -4 5 -8 12 -8 6 0 8 -3 5 -6 -4 -4 -57 3 -119 15 -62 12 -189
30 -283 40 -198 22 -169 24 110 11z m2955 -49 c0 -14 -63 -61 -72 -55 -14 9
35 52 51 46 9 -3 12 -1 7 6 -4 7 -2 12 3 12 6 0 11 -4 11 -9z m84 -10 c9 -14
-133 -126 -145 -114 -7 7 6 20 38 41 27 18 60 43 73 57 27 28 27 28 34 16z
m-2351 -98 c-13 -2 -35 -2 -50 0 -16 2 -5 4 22 4 28 0 40 -2 28 -4z m2044 -24
c-33 -19 -149 -39 -169 -28 -32 17 -20 29 25 23 23 -3 60 -1 82 4 22 6 49 10
60 11 18 0 19 0 2 -10z m-215 -31 c-8 -8 -20 -8 -44 -1 l-33 11 45 1 c33 1 41
-2 32 -11z m308 -2 c0 -7 -20 -19 -45 -26 -25 -7 -45 -16 -45 -20 0 -3 -15 -5
-32 -3 -20 3 -28 1 -21 -4 19 -14 -228 -3 -282 12 l-50 14 55 -7 c108 -14 240
-5 325 21 99 30 95 30 95 13z"/>
		<path d="M11135 1720 c3 -5 8 -10 11 -10 2 0 4 5 4 10 0 6 -5 10 -11 10 -5 0
-7 -4 -4 -10z"/>
		<path d="M6879 1430 l-24 -19 33 12 c25 9 39 9 65 0 l32 -12 -24 19 c-13 11
-31 20 -41 20 -10 0 -28 -9 -41 -20z"/>
		<path d="M6870 1371 c0 -11 26 -22 34 -14 3 3 3 10 0 14 -7 12 -34 11 -34 0z"/>
		<path d="M6940 1365 c0 -9 6 -12 15 -9 8 4 15 10 15 15 0 5 -7 9 -15 9 -8 0
-15 -7 -15 -15z"/>
		<path d="M8498 2523 c6 -2 18 -2 25 0 6 3 1 5 -13 5 -14 0 -19 -2 -12 -5z"/>
		<path d="M3323 2333 c-93 -93 -131 -157 -133 -228 -3 -75 -2 -81 18 -105 18
-22 18 -21 15 46 -2 62 1 75 32 129 18 33 57 90 85 125 101 126 93 142 -17 33z"/>
		<path d="M5415 2374 c-22 -3 -103 -12 -180 -20 -77 -9 -153 -18 -170 -19 -32
-3 -33 -3 -110 -30 -58 -21 -225 -102 -240 -116 -5 -6 33 10 85 34 105 48 184
66 430 98 201 25 568 36 667 19 82 -13 104 -27 38 -22 -29 3 -52 -2 -67 -12
-12 -9 -33 -16 -46 -16 -15 0 -26 -7 -29 -20 -3 -11 -10 -20 -17 -21 -6 0 -21
-2 -33 -5 -12 -2 -25 0 -28 5 -8 13 -73 2 -118 -21 -20 -10 -58 -21 -84 -24
-26 -3 -51 -8 -55 -10 -10 -7 -10 -24 0 -23 31 5 41 -12 23 -40 -6 -9 -18 -11
-41 -6 -26 6 -31 11 -28 29 4 20 0 21 -75 24 -49 2 -77 0 -73 -6 3 -5 -1 -15
-9 -22 -8 -7 -15 -21 -15 -32 0 -15 -6 -19 -27 -16 -23 2 -28 8 -28 30 1 15
-5 30 -13 33 -7 2 -11 1 -8 -3 2 -4 -16 -8 -41 -9 -47 -2 -113 -41 -113 -68 0
-8 -9 -19 -21 -26 -20 -10 -21 -9 -14 20 6 28 4 31 -18 31 -14 0 -56 -10 -93
-21 -63 -20 -75 -20 -134 -9 -36 7 -89 12 -117 11 -29 -1 -53 0 -53 3 0 3 24
19 53 36 97 55 36 31 -99 -41 -130 -69 -140 -72 -277 -96 -146 -25 -227 -57
-227 -89 0 -13 14 -15 98 -10 53 4 183 11 287 16 431 23 1072 73 1220 95 17 3
116 16 220 31 105 14 200 32 211 39 12 8 39 49 60 92 22 43 42 79 46 81 4 2 2
10 -5 19 -75 95 -116 106 -437 108 -140 2 -273 1 -295 -1z m625 -91 c0 -5 -32
-21 -70 -36 -38 -16 -126 -64 -196 -108 -70 -44 -143 -87 -163 -95 -22 -9
-107 -21 -216 -29 -99 -8 -254 -21 -345 -29 -171 -16 -521 -40 -742 -52 -88
-5 -128 -3 -128 4 0 13 50 18 275 32 422 25 650 41 770 55 72 9 176 19 233 24
88 7 112 13 177 45 76 38 90 54 56 63 -11 3 -22 11 -25 19 -4 11 4 14 34 14
42 0 48 -7 28 -29 -11 -11 -9 -11 12 -1 14 7 37 21 52 32 84 59 248 119 248
91z m-320 -53 c0 -5 -7 -10 -16 -10 -8 0 -12 5 -9 10 3 6 10 10 16 10 5 0 9
-4 9 -10z m332 -39 c-15 -9 -152 -24 -159 -17 -10 9 39 27 95 35 57 7 90 -2
64 -18z m-1302 -141 c-20 -13 -40 -13 -40 0 0 6 12 10 28 10 21 0 24 -2 12
-10z"/>
		<path d="M3623 2253 c15 -2 37 -2 50 0 12 2 0 4 -28 4 -27 0 -38 -2 -22 -4z"/>
		<path d="M3583 2233 c-20 -7 -15 -22 5 -20 10 0 19 7 19 14 0 14 -4 15 -24 6z"/>
		<path d="M3640 2225 c-14 -16 -10 -18 14 -9 9 3 16 10 16 15 0 14 -16 11 -30
-6z"/>
		<path d="M3510 2183 c-15 -19 -18 -29 -10 -37 8 -8 17 -4 30 14 21 27 26 50
11 50 -5 0 -19 -12 -31 -27z"/>
		<path d="M3477 2183 c-11 -11 -8 -48 5 -61 14 -14 64 -15 93 -2 14 7 10 8 -17
4 -57 -9 -81 2 -76 37 5 31 5 32 -5 22z"/>
		<path d="M3579 2164 l-24 -27 33 17 c17 9 32 21 32 26 0 17 -16 11 -41 -16z"/>
		<path d="M5208 2163 c7 -3 16 -2 19 1 4 3 -2 6 -13 5 -11 0 -14 -3 -6 -6z"/>
		<path d="M6457 2163 c-51 -8 -151 -168 -231 -369 -20 -50 -36 -97 -36 -103 0
-8 12 -11 32 -9 30 3 33 8 72 103 51 123 111 236 165 309 39 52 50 78 34 75
-5 -1 -21 -4 -36 -6z"/>
		<path d="M6008 2038 c-30 -29 -135 -115 -181 -150 -80 -60 -129 -124 -164
-218 -28 -73 -37 -123 -20 -118 27 10 405 498 384 498 -3 0 -12 -6 -19 -12z"/>
		<path d="M11765 1826 c-2 -6 -9 -40 -15 -75 -9 -52 -34 -147 -66 -254 -4 -14
9 -10 68 19 130 63 140 69 163 91 l24 21 -25 84 c-35 113 -40 119 -97 123 -30
2 -50 -2 -52 -9z"/>
		<path d="M3054 1753 c2 -10 14 -52 25 -93 11 -41 30 -101 41 -132 11 -32 20
-79 21 -105 1 -65 17 -27 18 41 1 38 -4 55 -21 74 -23 24 -23 24 -2 18 24 -7
30 9 41 105 l5 45 -61 32 c-71 37 -74 38 -67 15z"/>
		<path d="M3106 1274 c-9 -22 -8 -24 9 -18 8 4 15 12 15 20 0 19 -16 18 -24 -2z"/>
		<path d="M8598 1263 c7 -3 16 -2 19 1 4 3 -2 6 -13 5 -11 0 -14 -3 -6 -6z"/>
	</g>
</svg>
