<?xml version="1.0" standalone="no"?>
<!DOCTYPE svg PUBLIC "-//W3C//DTD SVG 20010904//EN"
 "http://www.w3.org/TR/2001/REC-SVG-20010904/DTD/svg10.dtd">
<svg version="1.0"
	xmlns="http://www.w3.org/2000/svg" width="1480.000000pt" height="426.000000pt" viewBox="0 0 1480.000000 426.000000" preserveAspectRatio="xMidYMid meet">

	<g transform="translate(0.000000,426.000000) scale(0.100000,-0.100000)" fill="#000000" stroke="none">
		<path d="M9860 3300 c0 -21 99 -65 243 -107 161 -46 634 -203 827 -273 63 -23
216 -71 340 -107 188 -54 241 -65 320 -69 l95 -5 -140 44 c-77 24 -248 81
-380 126 -438 151 -777 260 -1076 345 -202 57 -229 63 -229 46z"/>
		<path d="M7460 3240 c0 -5 -9 -10 -19 -10 -11 0 -23 -4 -26 -10 -10 -17 18
-11 50 10 21 14 25 20 13 20 -10 0 -18 -4 -18 -10z"/>
		<path d="M7720 3243 c-8 -3 -37 -16 -65 -28 -27 -12 -69 -30 -92 -40 -24 -10
-43 -21 -43 -26 0 -8 -163 -89 -180 -89 -6 0 -18 -7 -27 -15 -8 -8 -19 -13
-24 -10 -5 4 -9 1 -9 -4 0 -6 -7 -11 -15 -11 -8 0 -23 -8 -34 -19 -10 -10 -30
-21 -45 -25 -15 -4 -39 -18 -52 -31 -13 -13 -24 -22 -24 -20 0 3 -17 -4 -37
-15 -21 -11 -38 -26 -38 -33 0 -6 -8 -12 -18 -12 -10 0 -43 -16 -73 -35 -95
-60 -219 -142 -224 -149 -3 -4 -36 -26 -75 -49 -38 -23 -79 -48 -90 -55 -11
-6 -24 -18 -28 -24 -4 -7 -26 -16 -48 -19 -22 -4 -37 -10 -32 -14 17 -16 86
-32 152 -35 39 -3 98 -9 133 -15 169 -30 154 -30 1123 0 747 23 1450 63 1583
90 123 25 264 93 377 184 11 8 47 36 81 60 33 25 80 63 104 86 49 46 45 64
-21 75 -21 4 -39 10 -39 14 0 4 -28 16 -62 26 -35 9 -74 21 -88 26 -14 4 -70
17 -125 29 -291 61 -407 82 -504 91 -58 5 -135 14 -171 20 -144 21 -474 40
-815 46 -198 4 -352 9 -342 11 9 2 17 8 17 13 0 10 -104 11 -130 2z m615 -63
c258 -11 450 -25 630 -46 182 -20 408 -55 418 -64 8 -7 -70 -210 -80 -210 -3
0 -2 12 2 28 5 26 3 28 -39 41 -31 9 -60 10 -98 4 -34 -6 -75 -5 -115 3 -60
11 -63 11 -63 -9 0 -16 -47 -128 -79 -187 -10 -19 -121 -27 -121 -9 0 9 -4 7
-12 -3 -10 -12 -44 -17 -168 -22 -85 -3 -326 -12 -535 -21 -209 -8 -423 -17
-477 -19 l-96 -5 -16 39 c-19 48 -38 62 -30 22 6 -28 5 -29 -28 -25 -31 4 -32
3 -14 -11 17 -14 16 -15 -17 -21 -49 -9 -78 -3 -91 20 -23 40 -33 45 -81 38
-44 -6 -46 -7 -25 -18 22 -12 22 -12 -14 -19 -63 -12 -39 -26 44 -26 60 0 80
-3 80 -13 0 -8 -10 -19 -22 -25 -23 -11 -208 -32 -282 -32 l-41 1 24 19 c13
11 36 20 52 20 16 0 29 4 29 9 0 6 17 12 38 14 22 2 11 4 -30 5 -62 2 -68 4
-73 25 -4 13 3 48 15 81 26 67 41 76 136 76 36 0 64 4 64 10 0 6 -5 10 -11 10
-24 0 17 32 123 96 121 73 386 210 433 223 41 12 304 13 570 1z m1265 -162
c58 -17 117 -33 133 -36 63 -10 28 -17 -80 -14 -67 2 -128 -1 -147 -8 -35 -12
-136 -25 -136 -17 0 3 10 31 22 62 l21 56 41 -6 c23 -4 88 -20 146 -37z m380
-101 c0 -2 -10 -12 -22 -23 l-23 -19 19 23 c18 21 26 27 26 19z m-2827 -44
c-7 -2 -19 -2 -25 0 -7 3 -2 5 12 5 14 0 19 -2 13 -5z m-46 -9 c-3 -3 -12 -4
-19 -1 -8 3 -5 6 6 6 11 1 17 -2 13 -5z m-227 -227 c0 -38 -27 -66 -68 -69
-33 -3 -37 -6 -35 -30 1 -25 -2 -27 -63 -38 -36 -7 -67 -10 -70 -8 -4 5 215
166 229 167 4 1 7 -9 7 -22z m89 -13 c10 -9 -56 -3 -69 7 -11 7 -4 8 25 3 22
-4 42 -8 44 -10z m411 -59 c15 -18 15 -17 -27 -39 -43 -22 -57 -20 -33 4 11
11 20 27 20 35 0 19 24 19 40 0z"/>
		<path d="M7233 2743 c9 -2 25 -2 35 0 9 3 1 5 -18 5 -19 0 -27 -2 -17 -5z"/>
		<path d="M7225 3126 c-44 -23 -96 -52 -115 -64 -19 -12 -42 -22 -51 -22 -12 0
-16 -8 -15 -29 l1 -28 75 47 c41 27 103 63 138 81 34 18 62 39 62 46 0 18 -5
17 -95 -31z"/>
		<path d="M6980 2960 c0 -5 7 -7 15 -4 8 4 15 8 15 10 0 2 -7 4 -15 4 -8 0 -15
-4 -15 -10z"/>
		<path d="M6865 2901 c-49 -26 -108 -57 -130 -69 -22 -12 -47 -22 -56 -22 -9 0
-22 -7 -29 -15 -7 -8 -19 -15 -28 -15 -19 0 -80 -19 -107 -33 -11 -6 -75 -39
-141 -74 -67 -34 -130 -63 -140 -62 -17 0 -17 1 1 9 12 4 27 16 35 26 8 9 35
30 59 46 63 39 44 35 -51 -12 -76 -38 -81 -40 -95 -23 -13 16 -14 15 -9 -14 3
-19 1 -33 -4 -33 -6 0 -10 -4 -10 -8 0 -5 40 -21 89 -36 71 -22 94 -25 110
-16 12 6 119 75 239 153 120 78 253 164 295 191 42 27 77 51 77 53 0 8 -21 -1
-105 -46z"/>
		<path d="M6400 2745 c-14 -8 -20 -14 -14 -15 5 0 19 7 30 15 24 18 16 19 -16
0z"/>
		<path d="M5996 2685 c-4 -13 -2 -14 14 -5 23 13 26 20 6 20 -8 0 -16 -7 -20
-15z"/>
		<path d="M6120 2688 c0 -6 -10 -22 -22 -35 -12 -13 -17 -23 -11 -23 6 0 16 7
23 15 7 9 19 14 26 11 8 -3 11 0 7 10 -3 8 1 14 8 14 11 0 11 3 -1 10 -20 13
-30 12 -30 -2z"/>
		<path d="M6054 2655 c-10 -8 -14 -14 -9 -14 6 0 19 6 29 14 11 8 15 15 10 15
-6 0 -19 -7 -30 -15z"/>
		<path d="M6125 2610 c3 -5 8 -10 11 -10 2 0 4 5 4 10 0 6 -5 10 -11 10 -5 0
-7 -4 -4 -10z"/>
		<path d="M12105 2383 c-32 -9 -59 -31 -79 -65 l-19 -33 43 40 c24 22 39 34 35
26 -6 -11 -4 -13 9 -8 10 4 48 7 86 7 54 0 69 3 74 16 6 14 1 16 -36 10 -24
-3 -59 -8 -78 -10 -19 -2 -23 -1 -7 1 15 2 25 9 22 14 -6 9 -17 10 -50 2z"/>
		<path d="M12206 2280 c-26 -33 -50 -60 -54 -61 -4 0 -14 -2 -22 -5 -8 -2 -35
-8 -60 -13 -96 -22 -104 -26 -123 -66 -27 -55 -34 -105 -15 -105 20 0 144 43
201 70 53 25 83 71 106 165 7 28 15 56 17 63 6 21 -2 14 -50 -48z"/>
		<path d="M5480 2321 c0 -5 24 -30 54 -55 36 -31 62 -46 82 -46 l28 0 -39 41
c-55 56 -125 90 -125 60z"/>
		<path d="M9053 2143 c15 -2 37 -2 50 0 12 2 0 4 -28 4 -27 0 -38 -2 -22 -4z"/>
		<path d="M8728 2133 c7 -3 16 -2 19 1 4 3 -2 6 -13 5 -11 0 -14 -3 -6 -6z"/>
		<path d="M6193 2093 c9 -2 23 -2 30 0 6 3 -1 5 -18 5 -16 0 -22 -2 -12 -5z"/>
		<path d="M3120 2057 c-47 -11 -116 -49 -170 -94 -8 -7 -40 -30 -70 -51 -45
-31 -55 -43 -55 -67 0 -49 29 -57 179 -51 107 5 135 10 163 27 36 22 39 38 5
20 -12 -6 -31 -11 -44 -10 -22 0 -22 1 -3 9 17 7 15 9 -12 9 -18 1 -33 5 -33
10 0 5 23 28 50 51 28 23 50 50 50 61 0 10 5 19 10 19 6 0 10 -4 10 -10 0 -5
30 7 66 26 57 32 71 36 110 30 46 -6 104 -31 116 -50 4 -6 10 -7 14 -4 11 12
-42 56 -82 68 -60 18 -241 22 -304 7z"/>
		<path d="M6205 1943 c-11 -163 0 -435 30 -778 14 -159 25 -305 25 -322 l0 -33
-69 0 c-72 0 -95 -11 -64 -29 14 -8 5 -10 -38 -11 -65 0 -422 -45 -485 -61
-23 -6 -50 -20 -60 -30 -15 -17 -32 -19 -136 -19 -65 0 -118 4 -118 8 0 5 7
31 15 59 22 75 45 237 45 324 0 262 -123 544 -313 715 -59 53 -137 107 -214
149 -29 15 -53 31 -53 35 0 5 -15 10 -32 13 -18 2 -69 14 -113 27 -102 28
-277 37 -382 20 -234 -37 -466 -187 -596 -383 -95 -144 -137 -281 -144 -473
-4 -107 -1 -151 17 -244 12 -63 27 -128 34 -144 7 -17 16 -43 20 -58 l6 -28
-82 1 c-46 0 -137 4 -203 8 -139 10 -178 0 -219 -54 -30 -39 -31 -50 -12 -97
12 -28 26 -39 83 -62 91 -39 181 -53 483 -76 140 -10 314 -29 385 -41 114 -20
166 -22 430 -23 254 0 331 4 500 24 l200 23 2160 -1 c2253 -2 2404 -4 2625
-28 384 -40 718 -40 970 1 80 13 174 29 210 35 36 6 126 17 200 25 169 17 276
40 317 68 29 19 33 28 33 65 0 32 -6 49 -24 67 -13 13 -21 27 -17 31 3 3 -3 4
-14 0 -23 -6 -50 7 -50 26 0 7 -19 19 -42 28 -24 9 -48 21 -55 28 -7 7 -20 12
-29 12 -23 0 -140 38 -155 51 -7 6 -18 8 -24 4 -13 -8 -13 8 2 56 11 39 11 39
63 39 49 0 53 -2 60 -27 13 -47 45 105 50 237 10 260 -70 479 -238 657 -123
129 -277 218 -449 260 -108 27 -345 24 -451 -5 -207 -57 -387 -173 -511 -330
-145 -184 -206 -369 -206 -624 0 -65 -4 -118 -8 -118 -4 0 -60 -6 -123 -14
-88 -11 -138 -24 -205 -51 -207 -86 -152 -78 -617 -83 -289 -2 -422 0 -431 7
-9 8 -295 11 -943 11 -713 1 -934 4 -946 13 -9 7 -20 26 -23 44 -6 30 -4 32
27 36 l34 4 -31 1 c-38 2 -39 9 -54 235 -6 83 -15 202 -22 262 -6 61 -12 233
-12 382 -1 150 -2 273 -3 273 0 0 -4 -53 -8 -117z m-1737 -394 c5 -46 -8 -143
-17 -133 -4 5 -13 42 -19 83 -10 60 -10 76 0 83 22 13 33 3 36 -33z m-99 -41
l-1 -63 -13 40 c-18 55 -18 85 0 85 12 0 15 -13 14 -62z m-65 -50 c3 -37 3
-69 -1 -71 -14 -8 -153 35 -153 47 0 15 42 55 94 90 47 32 51 28 60 -66z m354
72 c17 -11 32 -22 32 -24 0 -9 -36 6 -60 24 -33 26 -14 25 28 0z m5709 -22
c-3 -24 -11 -44 -16 -46 -6 -2 -11 -12 -11 -23 0 -10 -4 -19 -10 -19 -5 0 -10
-6 -10 -14 0 -24 -55 -56 -94 -56 -37 0 -106 23 -106 35 0 12 44 70 69 90 43
36 123 75 154 75 29 0 30 -1 24 -42z m-5636 -62 c-6 -8 -18 -33 -25 -57 l-14
-44 -1 52 c-1 46 1 52 22 56 12 2 24 5 26 6 2 0 -2 -5 -8 -13z m-671 -90 l45
-15 -51 0 c-30 -1 -58 5 -70 14 -18 14 -18 14 6 15 14 0 45 -7 70 -14z m6070
-7 c0 -10 -31 -12 -54 -3 -9 3 -14 9 -11 13 6 10 65 1 65 -10z m-5977 -16 c-7
-2 -21 -2 -30 0 -10 3 -4 5 12 5 17 0 24 -2 18 -5z m333 -134 c9 -7 11 -61 5
-102 -3 -18 -55 -28 -83 -16 -48 20 -53 103 -8 126 25 13 65 9 86 -8z m5778
-4 c-4 -8 -8 -15 -10 -15 -2 0 -4 7 -4 15 0 8 4 15 10 15 5 0 7 -7 4 -15z
m268 -2 c43 -38 9 -123 -50 -123 -27 0 -80 29 -55 30 6 0 15 -4 18 -10 10 -16
51 -12 72 8 10 9 14 14 9 10 -17 -13 -74 -9 -89 7 -12 11 -17 12 -20 2 -3 -6
-5 4 -5 23 0 19 7 43 16 53 19 22 79 22 104 0z m-6222 -126 c0 -2 -12 -14 -27
-28 l-28 -24 24 28 c23 25 31 32 31 24z m6620 -52 c-14 -37 -47 -97 -67 -123
-17 -21 -20 -21 -41 -7 l-22 16 32 62 c36 71 43 77 80 77 25 0 27 -2 18 -25z
m-6490 9 c0 -10 -113 -174 -117 -170 -8 8 90 176 103 176 8 0 14 -3 14 -6z
m6040 -9 c0 -18 -50 -120 -74 -150 -13 -17 34 131 50 157 9 14 24 9 24 -7z
m-5953 -141 c-5 -5 -67 129 -66 142 0 5 16 -24 35 -65 19 -40 33 -75 31 -77z
m6046 47 c32 -55 9 -33 -33 32 -29 43 -33 52 -13 30 15 -17 36 -45 46 -62z
m-6323 75 c0 -2 -8 -10 -17 -17 -16 -13 -17 -12 -4 4 13 16 21 21 21 13z
m5933 -149 c-6 -30 -48 -83 -56 -71 -7 11 39 94 52 94 5 0 6 -11 4 -23z
m-6098 -16 c-15 -31 -35 -49 -35 -33 0 10 39 62 46 62 2 0 -2 -13 -11 -29z
m6881 1 c-17 -16 -18 -16 -5 5 7 12 15 20 18 17 3 -2 -3 -12 -13 -22z m-6957
-29 c1 -1 0 -7 -4 -13 -4 -7 -16 1 -31 21 -31 43 -30 48 4 18 15 -13 29 -25
31 -26z m-29 -70 c0 -7 -9 -13 -21 -13 -12 0 -19 5 -16 13 6 17 -12 49 -24 42
-5 -4 -9 -3 -10 2 0 4 -2 18 -3 31 -2 20 3 17 35 -20 21 -24 38 -49 39 -55z
m900 66 c0 -5 -4 -9 -10 -9 -5 0 -10 7 -10 16 0 8 5 12 10 9 6 -3 10 -10 10
-16z m6060 -5 c0 -14 -3 -14 -15 -4 -8 7 -15 14 -15 16 0 2 7 4 15 4 8 0 15
-7 15 -16z m64 1 c-4 -8 -1 -15 6 -15 6 0 8 -5 4 -11 -4 -8 -9 -7 -16 2 -7 10
-8 8 -5 -8 3 -15 -4 -29 -22 -45 -14 -13 -23 -19 -19 -14 4 5 3 15 -2 21 -8 9
-1 23 22 49 35 40 40 43 32 21z m-939 -5 c-3 -5 -11 -10 -16 -10 -6 0 -7 5 -4
10 3 6 11 10 16 10 6 0 7 -4 4 -10z m-5185 -44 c0 -3 -4 -8 -10 -11 -5 -3 -10
-1 -10 4 0 6 5 11 10 11 6 0 10 -2 10 -4z m5180 -27 c0 -5 -7 -9 -15 -9 -9 0
-12 6 -9 15 6 15 24 11 24 -6z m780 -30 c-43 -34 -60 -41 -60 -27 0 15 35 48
50 48 6 0 10 5 10 12 0 9 3 9 13 -1 10 -10 7 -16 -13 -32z m-6735 11 c3 -5 13
-10 21 -10 21 0 47 -27 34 -35 -5 -3 -18 -2 -27 4 -25 13 -58 51 -45 51 6 0
14 -4 17 -10z m675 6 c0 -2 -8 -10 -17 -17 -16 -13 -17 -12 -4 4 13 16 21 21
21 13z m26 -41 c-21 -19 -43 -35 -48 -35 -5 0 -6 -4 -3 -10 3 -5 -3 -10 -14
-10 -12 0 -21 -6 -21 -12 0 -9 -3 -9 -9 1 -7 11 5 24 49 52 32 20 61 42 65 49
4 6 10 9 13 6 3 -4 -12 -22 -32 -41z m5364 15 c14 -11 31 -20 38 -20 11 0 18
-20 7 -20 -7 0 -85 52 -85 56 0 9 17 2 40 -16z m772 10 c12 0 -14 -24 -70 -67
-37 -29 -92 -40 -92 -19 0 7 12 19 28 25 15 7 43 25 62 41 19 16 41 27 48 25
8 -3 18 -5 24 -5z m-6861 -35 c29 -20 59 -40 68 -46 12 -8 13 -12 3 -15 -6 -3
-10 -10 -6 -15 10 -17 -7 -9 -76 37 -46 30 -67 50 -63 60 8 20 15 18 74 -21z
m654 26 c3 -5 1 -12 -5 -16 -5 -3 -10 1 -10 9 0 18 6 21 15 7z m5434 -47 c45
-30 68 -51 64 -60 -7 -19 -78 20 -107 59 -11 15 -26 25 -33 23 -7 -3 -10 1 -6
10 3 7 7 14 9 14 1 0 34 -21 73 -46z m-5554 -23 c-6 -11 -87 -31 -124 -31 -21
0 -31 5 -31 15 0 11 12 15 43 16 23 1 56 5 72 8 32 8 48 4 40 -8z m-231 -2
c58 -1 74 -14 31 -25 -24 -6 -111 3 -128 13 -14 9 5 24 23 18 10 -3 43 -6 74
-6z m6015 -5 c45 -5 61 -11 61 -22 0 -12 -10 -14 -52 -9 -66 7 -111 24 -103
38 4 6 13 8 20 5 8 -3 41 -8 74 -12z m281 7 c0 -19 -133 -47 -175 -37 -42 11
-24 31 26 28 24 -1 56 1 71 5 37 11 78 13 78 4z m-483 -69 c178 -90 399 -97
577 -18 31 14 56 23 56 20 0 -3 -28 -18 -62 -34 -73 -34 -193 -60 -273 -60
-130 0 -306 60 -385 130 -31 28 -32 30 -5 12 17 -11 58 -33 92 -50z m-5772 9
c53 0 118 8 160 19 39 10 72 16 75 13 15 -14 -26 -40 -91 -56 -99 -24 -257
-18 -347 13 -60 21 -62 23 -40 34 18 9 36 8 88 -6 41 -12 97 -18 155 -17z
m-146 -62 c39 -7 106 -10 179 -7 80 4 106 2 82 -4 -53 -14 -218 -13 -285 2
-62 13 -165 56 -200 83 -11 9 21 -1 71 -23 50 -21 118 -44 153 -51z m6081 64
c84 -19 234 -14 313 12 49 16 60 17 67 5 13 -21 7 -25 -62 -46 -95 -28 -270
-26 -366 4 -61 19 -70 25 -60 37 7 8 20 12 28 9 8 -3 44 -12 80 -21z m-5685
-32 c-13 -12 -85 -34 -91 -28 -3 3 14 11 38 20 53 18 65 20 53 8z"/>
		<path d="M4403 1192 c-7 -5 4 -8 26 -7 22 0 37 3 34 8 -6 9 -45 9 -60 -1z"/>
		<path d="M4460 1140 c-8 -5 -12 -12 -9 -15 4 -3 12 1 19 10 14 17 11 19 -10 5z"/>
		<path d="M4390 1136 c0 -2 7 -6 15 -10 8 -3 15 -1 15 4 0 6 -7 10 -15 10 -8 0
-15 -2 -15 -4z"/>
		<path d="M4390 1105 c16 -20 74 -19 90 0 11 14 10 14 -15 5 -20 -7 -37 -8 -58
-1 -25 9 -28 9 -17 -4z"/>
		<path d="M10460 1190 c-11 -7 -6 -10 20 -10 26 0 31 3 20 10 -8 5 -17 10 -20
10 -3 0 -12 -5 -20 -10z"/>
		<path d="M10450 1125 c7 -9 15 -13 17 -11 7 7 -7 26 -19 26 -6 0 -6 -6 2 -15z"/>
		<path d="M10497 1126 c-4 -10 -1 -13 9 -9 15 6 19 23 5 23 -5 0 -11 -7 -14
-14z"/>
		<path d="M2789 2013 c-13 -16 -12 -17 4 -4 9 7 17 15 17 17 0 8 -8 3 -21 -13z"/>
		<path d="M3440 1920 c-21 -7 -19 -8 18 -9 23 -1 42 4 42 9 0 12 -24 12 -60 0z"/>
		<path d="M3315 1879 c-22 -12 -68 -39 -101 -60 -39 -25 -81 -43 -113 -48 -56
-9 -79 -21 -39 -21 14 0 94 7 179 15 l154 15 37 43 c21 23 38 45 38 50 0 4
-27 7 -61 7 -37 0 -58 4 -54 10 8 13 7 13 -40 -11z"/>
		<path d="M11190 1895 c0 -4 31 -40 69 -80 73 -77 138 -177 176 -272 17 -41 30
-59 44 -61 20 -3 20 -2 7 36 -59 167 -196 360 -268 377 -16 4 -28 4 -28 0z"/>
		<path d="M3638 1803 c-57 -61 -124 -158 -168 -245 -47 -94 -49 -108 -15 -108
14 0 25 5 25 11 0 5 18 47 41 92 45 91 108 183 163 239 42 43 44 48 13 48 -13
0 -38 -15 -59 -37z"/>
		<path d="M2848 1743 c23 -2 59 -2 80 0 20 2 1 4 -43 4 -44 0 -61 -2 -37 -4z"/>
		<path d="M11617 1534 c-14 -14 -7 -35 11 -32 9 2 17 10 17 17 0 16 -18 25 -28
15z"/>
		<path d="M12340 1500 c-4 -8 -15 -44 -24 -80 -39 -153 -130 -326 -187 -355
-43 -23 -54 -19 -101 34 -63 70 -95 83 -216 90 -57 3 -106 2 -109 -2 -7 -11
-93 -357 -93 -374 0 -20 27 -28 53 -15 12 6 67 18 122 27 55 9 120 23 145 31
25 7 89 23 143 34 110 22 168 47 146 61 -16 10 -14 10 59 13 25 1 47 8 52 16
5 8 25 80 44 160 72 295 79 352 48 369 -25 13 -73 8 -82 -9z m-105 -486 c17
-8 21 -12 10 -9 -11 4 -41 11 -67 16 -27 6 -48 13 -48 15 0 8 73 -8 105 -22z"/>
		<path d="M8748 1093 c7 -3 16 -2 19 1 4 3 -2 6 -13 5 -11 0 -14 -3 -6 -6z"/>
		<path d="M8688 1083 c7 -3 16 -2 19 1 4 3 -2 6 -13 5 -11 0 -14 -3 -6 -6z"/>
		<path d="M3280 1066 c-87 -16 -111 -31 -205 -125 -44 -45 -85 -81 -92 -81 -6
0 -15 9 -18 20 -7 22 -42 27 -73 11 -9 -5 -25 -12 -35 -15 -25 -8 -17 -28 19
-45 16 -8 23 -16 16 -19 -18 -6 -112 27 -156 55 -36 23 -38 27 -22 38 10 8 57
17 104 20 48 4 96 11 107 16 12 5 -13 6 -61 3 -90 -7 -131 5 -219 66 -26 18
-49 29 -53 26 -3 -4 13 -25 36 -49 22 -23 49 -64 59 -90 18 -47 20 -49 113
-90 52 -23 106 -49 120 -59 36 -23 88 -32 105 -18 11 9 39 11 97 6 194 -15
298 -17 316 -7 19 10 19 12 2 108 -10 54 -21 131 -25 171 l-7 72 -32 -1 c-17
0 -60 -6 -96 -13z"/>
		<path d="M8618 1073 c7 -3 16 -2 19 1 4 3 -2 6 -13 5 -11 0 -14 -3 -6 -6z"/>
		<path d="M8518 1063 c7 -3 16 -2 19 1 4 3 -2 6 -13 5 -11 0 -14 -3 -6 -6z"/>
		<path d="M8448 1053 c6 -2 18 -2 25 0 6 3 1 5 -13 5 -14 0 -19 -2 -12 -5z"/>
		<path d="M8328 1043 c7 -3 16 -2 19 1 4 3 -2 6 -13 5 -11 0 -14 -3 -6 -6z"/>
		<path d="M8138 1023 c6 -2 18 -2 25 0 6 3 1 5 -13 5 -14 0 -19 -2 -12 -5z"/>
		<path d="M8018 1013 c12 -2 32 -2 45 0 12 2 2 4 -23 4 -25 0 -35 -2 -22 -4z"/>
		<path d="M7933 1003 c9 -2 23 -2 30 0 6 3 -1 5 -18 5 -16 0 -22 -2 -12 -5z"/>
		<path d="M7828 993 c6 -2 18 -2 25 0 6 3 1 5 -13 5 -14 0 -19 -2 -12 -5z"/>
		<path d="M7723 983 c9 -2 23 -2 30 0 6 3 -1 5 -18 5 -16 0 -22 -2 -12 -5z"/>
		<path d="M7608 973 c6 -2 18 -2 25 0 6 3 1 5 -13 5 -14 0 -19 -2 -12 -5z"/>
		<path d="M7523 963 c9 -2 23 -2 30 0 6 3 -1 5 -18 5 -16 0 -22 -2 -12 -5z"/>
		<path d="M7403 953 c9 -2 23 -2 30 0 6 3 -1 5 -18 5 -16 0 -22 -2 -12 -5z"/>
		<path d="M7283 943 c9 -2 23 -2 30 0 6 3 -1 5 -18 5 -16 0 -22 -2 -12 -5z"/>
		<path d="M7173 933 c9 -2 25 -2 35 0 9 3 1 5 -18 5 -19 0 -27 -2 -17 -5z"/>
		<path d="M7038 923 c12 -2 30 -2 40 0 9 3 -1 5 -23 4 -22 0 -30 -2 -17 -4z"/>
		<path d="M6933 913 c9 -2 23 -2 30 0 6 3 -1 5 -18 5 -16 0 -22 -2 -12 -5z"/>
		<path d="M6788 903 c12 -2 32 -2 45 0 12 2 2 4 -23 4 -25 0 -35 -2 -22 -4z"/>
		<path d="M6453 893 c37 -2 97 -2 135 0 37 2 6 3 -68 3 -74 0 -105 -1 -67 -3z"/>
	</g>
</svg>
